<?xml version="1.0" encoding="UTF-8"?>
<svg version="1.1" xmlns="http://www.w3.org/2000/svg" width="512" height="512">
<path d="M0 0 C1.63309093 -0.00417981 3.26617895 -0.00966086 4.89926165 -0.01631981 C9.35827209 -0.03070842 13.81709665 -0.0265504 18.27611697 -0.019153 C23.0962963 -0.01440722 27.91643623 -0.02694366 32.73660278 -0.03717041 C42.16887874 -0.05433651 51.60108802 -0.05520291 61.03337554 -0.04995751 C68.70316225 -0.04591028 76.3729293 -0.04736593 84.04271507 -0.05270576 C85.68234457 -0.0538284 85.68234457 -0.0538284 87.35509789 -0.05497371 C89.57596551 -0.05650525 91.79683314 -0.05804359 94.01770075 -0.05958868 C114.82887802 -0.07330595 135.64001767 -0.06788159 156.45119407 -0.05640347 C175.47132249 -0.04647324 194.4913536 -0.05940951 213.51146702 -0.08333766 C233.06227401 -0.10774727 252.61303572 -0.11733186 272.16385764 -0.11068493 C283.13174659 -0.10719668 294.09956073 -0.10939867 305.06743813 -0.12693596 C314.40469083 -0.14168127 323.74181605 -0.142263 333.07906631 -0.12486505 C337.83843908 -0.11637164 342.59758433 -0.11416479 347.35694504 -0.1295166 C351.7225472 -0.14342339 356.08772823 -0.13852421 360.4533064 -0.11927737 C362.02386249 -0.11553531 363.59445281 -0.11838696 365.16497824 -0.12888902 C385.88154904 -0.25745587 403.33778018 5.91590528 418.62419128 20.38768005 C423.83434634 25.72855585 427.53892735 31.67153485 430.93669128 38.26268005 C431.42528625 39.19769348 431.42528625 39.19769348 431.92375183 40.15159607 C437.3747468 51.2761624 438.06296219 62.58622921 438.01187134 74.76348877 C438.01605115 76.3965797 438.02153219 78.02966772 438.02819115 79.66275042 C438.04257976 84.12176085 438.03842174 88.58058542 438.03102434 93.03960574 C438.02627856 97.85978507 438.038815 102.679925 438.04904175 107.50009155 C438.06620785 116.93236751 438.06707425 126.36457679 438.06182884 135.79686431 C438.05778162 143.46665102 438.05923727 151.13641807 438.0645771 158.80620384 C438.06532552 159.89929017 438.06607395 160.9923765 438.06684505 162.11858666 C438.06837658 164.33945428 438.06991493 166.56032191 438.07146002 168.78118952 C438.08517729 189.59236679 438.07975293 210.40350644 438.0682748 231.21468284 C438.05834458 250.23481126 438.07128085 269.25484237 438.095209 288.27495579 C438.11961861 307.82576278 438.1292032 327.37652449 438.12255627 346.92734641 C438.11906802 357.89523536 438.12127001 368.8630495 438.1388073 379.8309269 C438.15355261 389.1681796 438.15413434 398.50530482 438.13673639 407.84255508 C438.12824298 412.60192785 438.12603613 417.3610731 438.14138794 422.12043381 C438.15529472 426.48603597 438.15039554 430.851217 438.1311487 435.21679517 C438.12740664 436.78735126 438.1302583 438.35794158 438.14076035 439.92846701 C438.27271023 461.19016003 431.7270297 478.93864477 416.62419128 494.38768005 C400.94936709 508.34471529 383.76415663 512.86143599 363.24838257 512.77536011 C361.61529164 512.77953992 359.98220362 512.78502096 358.34912091 512.79167992 C353.89011048 512.80606853 349.43128592 512.80191051 344.9722656 512.79451311 C340.15208627 512.78976733 335.33194634 512.80230377 330.51177979 512.81253052 C321.07950383 512.82969662 311.64729455 512.83056302 302.21500703 512.82531761 C294.54522032 512.82127039 286.87545327 512.82272604 279.2056675 512.82806587 C277.566038 512.82918851 277.566038 512.82918851 275.89328468 512.83033382 C273.67241705 512.83186535 271.45154943 512.8334037 269.23068181 512.83494879 C248.41950455 512.84866606 227.6083649 512.8432417 206.7971885 512.83176357 C187.77706008 512.82183335 168.75702896 512.83476962 149.73691555 512.85869776 C130.18610856 512.88310738 110.63534685 512.89269197 91.08452493 512.88604504 C80.11663598 512.88255679 69.14882184 512.88475878 58.18094444 512.90229607 C48.84369174 512.91704138 39.50656652 512.91762311 30.16931625 512.90022516 C25.40994349 512.89173174 20.65079824 512.8895249 15.89143753 512.90487671 C11.52583537 512.91878349 7.16065434 512.91388431 2.79507617 512.89463747 C1.22452008 512.89089541 -0.34607024 512.89374707 -1.91659568 512.90424912 C-23.17828869 513.036199 -40.92677344 506.49051847 -56.37580872 491.38768005 C-70.33284395 475.71285586 -74.84956465 458.5276454 -74.76348877 438.01187134 C-74.76766858 436.37878041 -74.77314963 434.74569239 -74.77980858 433.11260968 C-74.79419719 428.65359925 -74.79003917 424.19477469 -74.78264177 419.73575437 C-74.77789599 414.91557504 -74.79043243 410.0954351 -74.80065918 405.27526855 C-74.81782528 395.8429926 -74.81869168 386.41078332 -74.81344628 376.9784958 C-74.80939905 369.30870909 -74.8108547 361.63894204 -74.81619453 353.96915627 C-74.81694296 352.87606994 -74.81769138 351.78298361 -74.81846248 350.65677345 C-74.81999402 348.43590582 -74.82153236 346.2150382 -74.82307745 343.99417058 C-74.83679472 323.18299331 -74.83137036 302.37185367 -74.81989224 281.56067727 C-74.80996201 262.54054885 -74.82289828 243.52051773 -74.84682643 224.50040432 C-74.87123604 204.94959733 -74.88082063 185.39883562 -74.8741737 165.8480137 C-74.87068545 154.88012475 -74.87288744 143.91231061 -74.89042473 132.94443321 C-74.90517004 123.60718051 -74.90575177 114.27005529 -74.88835382 104.93280502 C-74.87986041 100.17343226 -74.87765356 95.41428701 -74.89300537 90.6549263 C-74.90691216 86.28932414 -74.90201297 81.92414311 -74.88276614 77.55856494 C-74.87902408 75.98800885 -74.88187573 74.41741853 -74.89237779 72.84689309 C-75.02094464 52.1303223 -68.84758349 34.67409116 -54.37580872 19.38768005 C-49.03493292 14.17752499 -43.09195392 10.47294399 -36.50080872 7.07518005 C-35.87746643 6.74945007 -35.25412415 6.42372009 -34.6118927 6.08811951 C-23.48732637 0.63712453 -12.17725956 -0.05109085 0 0 Z " fill="#262626" transform="translate(74.37580871582031,-0.3876800537109375)"/>
<path d="M0 0 C1.12986076 -0.01475876 1.12986076 -0.01475876 2.282547 -0.02981567 C18.48401714 -0.19790945 34.16472323 -0.28481335 49.86328125 4.23828125 C50.71696289 4.4796582 51.57064453 4.72103516 52.45019531 4.96972656 C78.8697403 12.64926523 101.64059139 25.62810135 121.86328125 44.23828125 C122.60707031 44.91117188 123.35085938 45.5840625 124.1171875 46.27734375 C146.71848327 67.73715993 161.64761758 97.89837361 167.47265625 128.22363281 C167.80731548 129.94963779 168.17570575 131.66904347 168.55078125 133.38671875 C172.66547823 154.70313507 170.7369444 179.64435346 163.86328125 200.23828125 C163.64188477 200.93711426 163.42048828 201.63594727 163.19238281 202.35595703 C150.2436873 243.0768547 122.60646182 275.75605555 85.07324219 296.11132812 C78.86711472 299.27609662 72.3663126 301.76093598 65.86328125 304.23828125 C64.96222656 304.62113281 64.06117188 305.00398438 63.1328125 305.3984375 C59.40191281 306.77906303 56.84369581 306.68054953 52.86328125 306.23828125 C50.08802107 304.04069087 48.99839705 302.21042914 48.50976562 298.69476318 C48.36855423 295.4191535 48.36266551 292.16523228 48.39453125 288.88671875 C48.38748169 287.67690338 48.38043213 286.46708801 48.37316895 285.22061157 C48.34371818 280.05337526 48.36024784 274.88651632 48.37255859 269.71923828 C48.3749529 265.9415064 48.3539396 262.16437575 48.33203125 258.38671875 C48.34335083 257.23424652 48.35467041 256.08177429 48.36633301 254.89437866 C48.29850003 243.89229059 45.14015521 235.21626901 38.86328125 226.23828125 C40.73306641 225.90957031 40.73306641 225.90957031 42.640625 225.57421875 C58.57293616 222.65725673 73.66758709 219.07875625 86.86328125 209.23828125 C87.51554688 208.76777344 88.1678125 208.29726563 88.83984375 207.8125 C97.50485711 201.03699396 102.26417143 191.40266381 105.86328125 181.23828125 C106.25773437 180.23410156 106.6521875 179.22992188 107.05859375 178.1953125 C110.06359887 169.2328322 110.28925679 160.43628151 110.36328125 151.05078125 C110.38173096 149.77992676 110.40018066 148.50907227 110.41918945 147.19970703 C110.3499414 136.65617701 108.11400431 127.58998266 102.92578125 118.36328125 C102.16974609 117.00589844 102.16974609 117.00589844 101.3984375 115.62109375 C100.02617765 113.49112298 98.6817447 111.9725107 96.86328125 110.23828125 C94.86328125 107.23828125 94.86328125 107.23828125 95 105.06640625 C95.38877618 103.24660286 95.80123232 101.43178074 96.23046875 99.62109375 C98.38350034 88.11167799 97.17215664 76.38604002 93.86328125 65.23828125 C80.13263688 65.48547779 69.69880609 69.96103475 57.8359375 76.58984375 C56.36447266 77.40582031 56.36447266 77.40582031 54.86328125 78.23828125 C53.93773437 78.84027344 53.0121875 79.44226563 52.05859375 80.0625 C47.47933616 81.74753244 44.30401857 80.58046469 39.67578125 79.42578125 C29.40948781 77.22076617 19.43962761 76.80147805 8.98828125 76.80078125 C8.25791656 76.79533295 7.52755188 76.78988464 6.77505493 76.78427124 C-2.6033861 76.73227483 -11.37285841 77.56747793 -20.55517578 79.49975586 C-31.38191173 81.73226276 -31.38191173 81.73226276 -37.76171875 77.67578125 C-38.97777951 76.92919564 -40.19660296 76.18709371 -41.41796875 75.44921875 C-42.0315625 75.07635742 -42.64515625 74.70349609 -43.27734375 74.31933594 C-51.51524841 69.52975586 -59.38531256 66.34087968 -68.88671875 65.67578125 C-70.64242187 65.55009766 -70.64242187 65.55009766 -72.43359375 65.421875 C-73.325625 65.36128906 -74.21765625 65.30070312 -75.13671875 65.23828125 C-75.26949219 65.99753906 -75.40226562 66.75679688 -75.5390625 67.5390625 C-75.71566406 68.53292969 -75.89226562 69.52679688 -76.07421875 70.55078125 C-76.24824219 71.53691406 -76.42226562 72.52304688 -76.6015625 73.5390625 C-77.13671875 76.23828125 -77.13671875 76.23828125 -78.13671875 79.23828125 C-78.26007151 81.52747903 -78.31230353 83.82079343 -78.32421875 86.11328125 C-78.32993896 86.77803467 -78.33565918 87.44278809 -78.34155273 88.12768555 C-78.32069866 92.62200549 -77.69343443 96.65006869 -76.69921875 101.05078125 C-76.07465098 104.63658639 -75.78834636 106.50009025 -77.3515625 109.8125 C-78.5612817 111.45634163 -79.81890839 113.06578939 -81.1171875 114.640625 C-89.13068443 124.94812105 -91.52643314 137.15088259 -91.44921875 149.86328125 C-91.4443042 150.8275 -91.43938965 151.79171875 -91.43432617 152.78515625 C-91.12359635 171.90699163 -85.69467814 191.13267791 -72.51171875 205.42578125 C-57.70771718 219.31876734 -38.58312033 223.55601896 -19.13671875 226.23828125 C-19.60722656 226.91632813 -20.07773438 227.594375 -20.5625 228.29296875 C-23.73340063 233.03290716 -26.31438483 237.05752208 -27.51171875 242.67578125 C-28.23875354 245.33453057 -28.71740763 246.83661441 -30.71484375 248.75 C-38.5399423 253.00601734 -49.77830544 252.49710448 -58.24609375 250.5078125 C-66.41982917 247.47362284 -71.33848642 242.40961471 -76.01171875 235.30078125 C-81.45649011 227.38791861 -87.46540543 221.44139896 -97.13671875 219.23828125 C-100.63162636 218.90484484 -103.9221441 218.63099393 -107.13671875 220.23828125 C-107.01525341 222.12863889 -107.01525341 222.12863889 -106.13671875 224.23828125 C-103.87157473 226.08630969 -103.87157473 226.08630969 -101.07421875 227.80078125 C-92.08442665 234.13423478 -87.50884006 242.38371508 -82.63671875 251.98828125 C-77.48578879 262.02915489 -72.1329375 266.89679236 -61.58911133 271.19970703 C-55.553108 273.01550211 -49.63450713 272.76273649 -43.38671875 272.55078125 C-42.10539062 272.52822266 -40.8240625 272.50566406 -39.50390625 272.48242188 C-36.38023752 272.42414447 -33.25913839 272.34238326 -30.13671875 272.23828125 C-30.03764617 276.43743432 -29.96515702 280.63596377 -29.91699219 284.8359375 C-29.89690893 286.26379246 -29.86963623 287.6915655 -29.83496094 289.11914062 C-29.78629206 291.17468493 -29.76371908 293.2291398 -29.74609375 295.28515625 C-29.71467285 297.13898926 -29.71467285 297.13898926 -29.68261719 299.03027344 C-30.13671875 302.23828125 -30.13671875 302.23828125 -31.90307617 304.64233398 C-35.59840663 307.28266355 -38.76564189 306.89665373 -43.13671875 306.23828125 C-46.59281745 305.25834013 -49.80377752 303.90369807 -53.07421875 302.42578125 C-54.43740234 301.82334595 -54.43740234 301.82334595 -55.828125 301.20874023 C-96.5132521 282.7113152 -126.36783523 249.94751803 -142.05859375 208.2890625 C-155.9663014 169.26758486 -152.29531942 126.54735816 -135.13671875 89.23828125 C-117.36831919 52.30089467 -84.40406515 23.45704882 -46.13671875 9.23828125 C-31.23554382 4.14015407 -15.80656523 0.17089651 0 0 Z " fill="#FDFDFD" transform="translate(246.13671875,102.76171875)"/>
</svg>
