<?xml version="1.0" encoding="UTF-8"?>
<svg version="1.1" xmlns="http://www.w3.org/2000/svg" width="512" height="512">
<path d="M0 0 C1.58100265 -0.00374032 3.16200345 -0.00834336 4.74300134 -0.01373065 C9.07193369 -0.02592904 13.40078858 -0.02570391 17.72973418 -0.02334189 C22.40476524 -0.02293292 27.07977172 -0.03398061 31.75479126 -0.04345703 C40.90872888 -0.06005112 50.06264074 -0.06556588 59.21659215 -0.06668179 C66.66047489 -0.0676331 74.10434916 -0.07174757 81.54822922 -0.07808304 C102.66868615 -0.09569182 123.78912278 -0.10492258 144.9095871 -0.10342209 C146.61655233 -0.10330222 146.61655233 -0.10330222 148.35800171 -0.10317993 C149.49737361 -0.10309817 150.63674551 -0.10301641 151.81064384 -0.10293217 C170.26837283 -0.10211958 188.72602017 -0.12125147 207.18372555 -0.14945666 C226.15134687 -0.17821153 245.11892839 -0.1919955 264.08657205 -0.19026911 C274.72922425 -0.18960607 285.37179085 -0.19506079 296.01442337 -0.21662521 C305.07725995 -0.23487135 314.13997215 -0.23915626 323.20281918 -0.22560637 C327.82243496 -0.21909378 332.44181235 -0.2188974 337.06140518 -0.23631287 C341.29944472 -0.25212484 345.53705845 -0.24909786 349.77508812 -0.2317446 C351.29930395 -0.22869245 352.82355221 -0.2322389 354.34772976 -0.24346475 C373.73298005 -0.3766595 391.804461 5.07945607 406.44052124 18.26742554 C407.33513062 19.06922241 408.22973999 19.87101929 409.15145874 20.69711304 C422.03983111 32.87927323 431.61218685 49.56676415 432.62812877 67.59694409 C432.70422448 71.67483585 432.71711104 75.74851328 432.70794678 79.8269043 C432.7116871 81.40790694 432.71629014 82.98890775 432.72167742 84.56990564 C432.73387582 88.89883799 432.73365069 93.22769288 432.73128867 97.55663848 C432.7308797 102.23166953 432.74192738 106.90667602 432.75140381 111.58169556 C432.7679979 120.73563318 432.77351265 129.88954504 432.77462856 139.04349644 C432.77557988 146.48737919 432.77969435 153.93125345 432.78602982 161.37513351 C432.80363859 182.49559045 432.81286936 203.61602707 432.81136887 224.7364914 C432.811249 226.44345663 432.811249 226.44345663 432.81112671 228.18490601 C432.81104495 229.32427791 432.81096319 230.46364981 432.81087895 231.63754813 C432.81006635 250.09527713 432.82919825 268.55292446 432.85740344 287.01062985 C432.8861583 305.97825116 432.89994227 324.94583269 432.89821589 343.91347635 C432.89755284 354.55612854 432.90300757 365.19869515 432.92457199 375.84132767 C432.94281812 384.90416425 432.94710303 393.96687645 432.93355314 403.02972348 C432.92704056 407.64933926 432.92684418 412.26871664 432.94425964 416.88830948 C432.96007162 421.12634901 432.95704464 425.36396275 432.93969138 429.60199241 C432.93663923 431.12620824 432.94018568 432.65045651 432.95141153 434.17463405 C433.08460627 453.55988435 427.62849071 471.6313653 414.44052124 486.26742554 C413.63872437 487.16203491 412.83692749 488.05664429 412.01083374 488.97836304 C399.82867355 501.86673541 383.14118262 511.43909115 365.11100268 512.45503306 C361.03311092 512.53112877 356.9594335 512.54401534 352.88104248 512.53485107 C351.30003983 512.5385914 349.71903903 512.54319444 348.13804114 512.54858172 C343.80910879 512.56078011 339.4802539 512.56055498 335.1513083 512.55819297 C330.47627724 512.557784 325.80127076 512.56883168 321.12625122 512.57830811 C311.9723136 512.5949022 302.81840174 512.60041695 293.66445033 512.60153286 C286.22056759 512.60248418 278.77669332 512.60659865 271.33281326 512.61293411 C250.21235633 512.63054289 229.0919197 512.63977366 207.97145538 512.63827316 C206.26449015 512.6381533 206.26449015 512.6381533 204.52304077 512.63803101 C203.38366887 512.63794924 202.24429697 512.63786748 201.07039864 512.63778324 C182.61266965 512.63697065 164.15502231 512.65610254 145.69731693 512.68430774 C126.72969561 512.7130626 107.76211409 512.72684657 88.79447043 512.72512019 C78.15181823 512.72445714 67.50925163 512.72991187 56.86661911 512.75147629 C47.80378253 512.76972242 38.74107033 512.77400733 29.6782233 512.76045744 C25.05860752 512.75394485 20.43923013 512.75374848 15.8196373 512.77116394 C11.58159776 512.78697591 7.34398403 512.78394893 3.10595436 512.76659568 C1.58173853 512.76354353 0.05749027 512.76708998 -1.46668728 512.77831583 C-20.85193757 512.91151057 -38.92341852 507.45539501 -53.55947876 494.26742554 C-54.45408813 493.46562866 -55.34869751 492.66383179 -56.27041626 491.83773804 C-69.15878863 479.65557785 -78.73114437 462.96808692 -79.74708629 444.93790698 C-79.823182 440.86001522 -79.83606856 436.7863378 -79.8269043 432.70794678 C-79.83064462 431.12694413 -79.83524766 429.54594333 -79.84063494 427.96494544 C-79.85283334 423.63601308 -79.85260821 419.3071582 -79.85024619 414.97821259 C-79.84983722 410.30318154 -79.8608849 405.62817505 -79.87036133 400.95315552 C-79.88695542 391.7992179 -79.89247017 382.64530604 -79.89358608 373.49135463 C-79.8945374 366.04747189 -79.89865187 358.60359762 -79.90498734 351.15971756 C-79.92259611 330.03926063 -79.93182688 308.918824 -79.93032639 287.79835968 C-79.93024647 286.66038286 -79.93016656 285.52240604 -79.93008423 284.34994507 C-79.93000247 283.21057317 -79.92992071 282.07120126 -79.92983647 280.89730294 C-79.92902387 262.43957394 -79.94815577 243.98192661 -79.97636096 225.52422123 C-80.00511582 206.55659991 -80.01889979 187.58901838 -80.01717341 168.62137473 C-80.01651036 157.97872253 -80.02196509 147.33615593 -80.04352951 136.69352341 C-80.06177564 127.63068682 -80.06606055 118.56797463 -80.05251066 109.50512759 C-80.04599808 104.88551182 -80.0458017 100.26613443 -80.06321716 95.6465416 C-80.07902914 91.40850206 -80.07600216 87.17088832 -80.0586489 82.93285866 C-80.05559675 81.40864283 -80.0591432 79.88439457 -80.07036905 78.36021702 C-80.20356379 58.97496673 -74.74744823 40.90348577 -61.55947876 26.26742554 C-60.75768188 25.37281616 -59.95588501 24.47820679 -59.12979126 23.55648804 C-42.89397198 6.37946185 -23.12437038 -0.05196114 0 0 Z M0.19442749 86.56820679 C-5.87659553 93.60964674 -9.78211807 101.84370096 -13.55947876 110.26742554 C-13.92170532 111.06922241 -14.28393188 111.87101929 -14.65713501 112.69711304 C-20.25566518 127.1576382 -18.8481397 144.77431539 -18.81826782 159.95883179 C-18.82098372 162.29825957 -18.82454799 164.63768649 -18.82888794 166.97711182 C-18.83794299 173.28285222 -18.83449629 179.58852659 -18.82812977 185.89426804 C-18.82355195 191.84822268 -18.82706221 197.80217154 -18.82998416 203.75612605 C-18.83566556 216.26658499 -18.82916414 228.77701445 -18.81838343 241.28746855 C-18.80944992 251.98490385 -18.81100258 262.68229571 -18.82022095 273.37973022 C-18.8309625 285.85029659 -18.83511644 298.32083723 -18.82899642 310.79140759 C-18.82585216 317.37514772 -18.8254222 323.95886377 -18.8320694 330.54260254 C-18.83788565 336.73484368 -18.83376831 342.92700355 -18.82228088 349.11923599 C-18.81965705 351.37936392 -18.82035996 353.63949879 -18.82480621 355.89962387 C-18.8757548 384.45013477 -15.98304945 408.53308837 4.44052124 430.26742554 C25.05598536 450.42865062 52.09332154 451.57898914 79.21786499 451.5262146 C81.57847196 451.52892991 83.93907808 451.53249385 86.29968262 451.53683472 C92.66739636 451.54589675 99.03504477 451.54244013 105.40275955 451.53607655 C109.38970493 451.53304164 113.37664107 451.53319864 117.36358643 451.53505707 C118.36086145 451.53551677 118.36086145 451.53551677 119.37828344 451.53598575 C120.7295212 451.5366253 122.08075895 451.53727373 123.4319967 451.53793094 C136.05973649 451.54361436 148.68744709 451.5371077 161.31518209 451.5263302 C172.11641651 451.51739651 182.91760791 451.51894911 193.71884155 451.52816772 C206.3058534 451.53890565 218.89283975 451.54306523 231.47985554 451.5369432 C232.82572237 451.5363062 234.17158921 451.53567745 235.51745605 451.53505707 C236.17939954 451.53474852 236.84134303 451.53443997 237.52334541 451.53412206 C242.15572714 451.53240566 246.78809187 451.5353868 251.42047119 451.54001617 C257.67179157 451.54582797 263.92303136 451.54172306 270.17434311 451.53022766 C272.45746604 451.52760148 274.74059585 451.52831087 277.02371597 451.53275299 C304.7451745 451.58168277 329.69269256 448.88891426 350.44052124 428.26742554 C370.53079856 406.83497076 371.59293408 381.0637856 371.58578491 353.14364624 C371.58878074 350.80495653 371.59218425 348.46626731 371.59596252 346.12757874 C371.60476363 339.80090073 371.607139 333.47423627 371.60777831 327.14755273 C371.60861093 322.52120975 371.61151475 317.89486975 371.61461479 313.26852783 C371.62290652 300.81074825 371.62665868 288.35297579 371.62594505 275.89519355 C371.6259051 275.18956575 371.62586514 274.48393795 371.62582397 273.75692749 C371.62578309 273.05042524 371.62574221 272.34392299 371.62570009 271.61601158 C371.62529397 260.17602657 371.63485832 248.73607453 371.64896234 237.29609904 C371.66337328 225.51299542 371.67022994 213.72990782 371.66936857 201.94679517 C371.66903822 195.34620923 371.67191187 188.74565367 371.68254662 182.14507484 C371.69228394 175.93238725 371.6922684 169.71977226 371.68502998 163.50708199 C371.68399111 161.23889306 371.68630511 158.97069947 371.69239044 156.70251846 C371.76383576 128.20639365 369.07104396 103.926358 348.44052124 82.26742554 C331.42470495 65.90606372 310.02158228 61.09410664 287.03813171 61.13371277 C285.55863778 61.13031443 285.55863778 61.13031443 284.04925507 61.12684745 C280.77642596 61.12056679 277.50363888 61.12133296 274.23080444 61.12216187 C271.87093554 61.11916666 269.51106712 61.1157633 267.15119934 61.11198425 C260.76254779 61.10317666 254.37390965 61.1008075 247.98525262 61.10016847 C243.98744809 61.0994561 239.98964582 61.09738169 235.99184227 61.09467125 C222.74619893 61.08587523 209.50056365 61.08125021 196.25491736 61.08200172 C195.18627248 61.08206166 195.18627248 61.08206166 194.09603882 61.0821228 C193.02607188 61.08218412 193.02607188 61.08218412 191.93448945 61.08224668 C180.38383449 61.08265282 168.83321217 61.07308865 157.28256664 61.05898444 C145.38988832 61.04457849 133.49722588 61.03771657 121.60453862 61.03857821 C114.94081325 61.03890874 108.27711734 61.03602757 101.6133976 61.02540016 C95.34163072 61.01567029 89.06993579 61.01567336 82.79816628 61.02291679 C80.50698236 61.02395659 78.21579385 61.02163604 75.92461777 61.01555634 C46.50452542 60.94259577 21.8226928 64.41334023 0.19442749 86.56820679 Z " fill="#000000" transform="translate(79.55947875976563,-0.267425537109375)"/>
<path d="M0 0 C0.90562996 -0.00507454 1.81125992 -0.01014909 2.74433321 -0.0153774 C4.23102466 -0.01612404 4.23102466 -0.01612404 5.74775028 -0.01688576 C7.33170372 -0.02345914 7.33170372 -0.02345914 8.94765621 -0.03016531 C12.49797114 -0.04355558 16.04826124 -0.04973277 19.59859562 -0.0558567 C22.13963782 -0.06375762 24.68067889 -0.07202657 27.22171879 -0.08063698 C34.85680935 -0.10459793 42.49189868 -0.11978713 50.12701496 -0.13269705 C52.28506002 -0.13641083 54.44310443 -0.14038392 56.60114884 -0.14444971 C70.01340738 -0.16969224 83.42566698 -0.19173701 96.83794403 -0.20417786 C99.94370814 -0.20710738 103.04947222 -0.21006906 106.15523624 -0.21308327 C106.92712404 -0.21382932 107.69901184 -0.21457537 108.49429018 -0.21534403 C120.98511898 -0.22798475 133.47580502 -0.26119123 145.96656715 -0.3028851 C158.80256835 -0.34537852 171.63849663 -0.36888157 184.47456795 -0.37409842 C191.67662135 -0.37750457 198.87845181 -0.38916487 206.08043575 -0.42220116 C212.86108248 -0.45325429 219.64127405 -0.45857712 226.42200375 -0.4468174 C228.90473725 -0.44659703 231.38748897 -0.45487119 233.8701601 -0.47247124 C252.1936473 -0.59525103 265.31637268 0.6236283 279.15548038 13.71904564 C285.61305371 20.55941326 290.59227673 30.15256633 290.62061977 39.653409 C290.62823159 41.01185394 290.62823159 41.01185394 290.63599718 42.39774221 C290.63649493 43.38886985 290.63699269 44.37999748 290.63750553 45.40115929 C290.64188779 46.45712824 290.64627004 47.5130972 290.65078509 48.60106522 C290.66417535 52.15138015 290.67035255 55.70167025 290.67647648 59.25200462 C290.6843774 61.79304682 290.69264634 64.3340879 290.70125675 66.87512779 C290.7252177 74.51021835 290.7404069 82.14530769 290.75331682 89.78042397 C290.7570306 91.93846902 290.7610037 94.09651343 290.76506948 96.25455785 C290.79031201 109.66681638 290.81235679 123.07907599 290.82479763 136.49135303 C290.82772715 139.59711714 290.83068884 142.70288122 290.83370304 145.80864525 C290.83444909 146.58053305 290.83519514 147.35242085 290.8359638 148.14769918 C290.84860453 160.63852798 290.88181101 173.12921402 290.92350487 185.61997616 C290.9659983 198.45597735 290.98950134 211.29190563 290.99471819 224.12797695 C290.99812434 231.33003035 291.00978464 238.53186081 291.04282093 245.73384476 C291.07387407 252.51449148 291.0791969 259.29468306 291.06743717 266.07541275 C291.06721681 268.55814625 291.07549096 271.04089798 291.09309101 273.52356911 C291.2158708 291.8470563 289.99699147 304.96978168 276.90157413 318.80888939 C270.06120651 325.26646272 260.46805344 330.24568574 250.96721077 330.27402878 C249.60876583 330.28164059 249.60876583 330.28164059 248.22287756 330.28940618 C247.23174993 330.28990394 246.24062229 330.29040169 245.21946049 330.29091454 C244.16349153 330.29529679 243.10752257 330.29967904 242.01955456 330.30419409 C238.46923963 330.31758436 234.91894953 330.32376155 231.36861515 330.32988548 C228.82757295 330.3377864 226.28653187 330.34605534 223.74549198 330.35466576 C216.11040142 330.3786267 208.47531209 330.39381591 200.8401958 330.40672582 C198.68215075 330.4104396 196.52410634 330.4144127 194.36606193 330.41847849 C180.95380339 330.44372101 167.54154378 330.46576579 154.12926674 330.47820663 C151.02350263 330.48113616 147.91773855 330.48409784 144.81197453 330.48711205 C143.65414283 330.48823112 143.65414283 330.48823112 142.47292059 330.4893728 C129.98209179 330.50201353 117.49140575 330.53522001 105.00064362 330.57691388 C92.16464242 330.6194073 79.32871414 330.64291035 66.49264282 330.6481272 C59.29058942 330.65153334 52.08875896 330.66319365 44.88677502 330.69622993 C38.10612829 330.72728307 31.32593672 330.7326059 24.54520702 330.72084618 C22.06247352 330.72062581 19.5797218 330.72889997 17.09705067 330.74650002 C-1.22643653 330.86927981 -14.34916191 329.65040048 -28.18826962 316.55498314 C-34.64584294 309.71461552 -39.62506596 300.12146245 -39.653409 290.62061977 C-39.65848355 289.71498982 -39.66355809 288.80935986 -39.66878641 287.87628657 C-39.66928416 286.88515893 -39.66978192 285.8940313 -39.67029476 284.87286949 C-39.67467702 283.81690053 -39.67905927 282.76093158 -39.68357432 281.67296356 C-39.69696458 278.12264863 -39.70314178 274.57235853 -39.70926571 271.02202415 C-39.71716663 268.48098196 -39.72543557 265.93994088 -39.73404598 263.39890099 C-39.75800693 255.76381042 -39.77319613 248.12872109 -39.78610605 240.49360481 C-39.78981983 238.33555976 -39.79379293 236.17751535 -39.79785872 234.01947093 C-39.82310124 220.60721239 -39.84514602 207.19495279 -39.85758686 193.78267574 C-39.86051638 190.67691163 -39.86347807 187.57114756 -39.86649227 184.46538353 C-39.86723832 183.69349573 -39.86798437 182.92160793 -39.86875303 182.12632959 C-39.88139376 169.63550079 -39.91460024 157.14481476 -39.9562941 144.65405262 C-39.99878753 131.81805143 -40.02229057 118.98212315 -40.02750742 106.14605182 C-40.03091357 98.94399843 -40.04257387 91.74216797 -40.07561016 84.54018402 C-40.1066633 77.7595373 -40.11198613 70.97934572 -40.1002264 64.19861603 C-40.10000604 61.71588253 -40.10828019 59.2331308 -40.12588024 56.75045967 C-40.24866003 38.42697248 -39.0297807 25.30424709 -25.93436337 11.46513939 C-19.09399574 5.00756606 -9.50084267 0.02834304 0 0 Z M206.48360538 42.13701439 C201.39523592 50.13722534 200.75834404 57.76990662 201.48360538 67.13701439 C203.30368242 74.26131592 207.62065119 80.58376042 213.76485538 84.64482689 C222.11225749 89.38766899 230.64553442 90.88396683 240.15938663 88.45342064 C249.12237136 84.7227137 254.46054176 78.86473507 258.48360538 70.13701439 C260.73925545 63.37006421 260.60991518 54.80950762 257.85860538 48.19951439 C253.96685826 40.82712019 248.59235266 35.13860278 240.72188663 32.05498314 C227.46734779 28.29766513 215.51512033 32.00210169 206.48360538 42.13701439 Z M48.48360538 94.13701439 C28.07506308 116.02630267 20.35826827 143.05098726 21.10469913 172.40263939 C21.76257601 187.16052949 25.85054246 200.01749532 32.48360538 213.13701439 C33.01856632 214.1953347 33.55352726 215.25365501 34.10469913 216.34404564 C47.40648638 240.68280743 71.17709847 258.60941637 97.60860538 266.44951439 C126.14542944 273.33052311 153.89231654 269.50374748 179.48360538 255.13701439 C183.76538343 252.48321581 187.65082959 249.40028412 191.48360538 246.13701439 C192.34083195 245.42931908 193.19805851 244.72162376 194.08126163 243.99248314 C213.0391434 227.73031254 226.62080062 204.12828852 229.48360538 179.13701439 C231.7292383 149.6377684 225.98309534 122.03955669 206.48360538 99.13701439 C205.77591007 98.27978783 205.06821476 97.42256126 204.33907413 96.53935814 C185.89099613 75.03322036 160.08385027 62.89055297 132.04610538 60.26201439 C99.70335233 58.84377602 71.04398942 71.27582523 48.48360538 94.13701439 Z " fill="#000000" transform="translate(130.51639461517334,90.86298561096191)"/>
<path d="M0 0 C3.66944815 3.00099539 6.96937735 6.29600157 10.25927734 9.70410156 C10.99662109 10.41050781 11.73396484 11.11691406 12.49365234 11.84472656 C25.31131979 24.86111753 30.5911446 43.35368285 30.75927734 61.14160156 C30.56892972 81.30357889 24.43897083 99.71989604 9.96240234 114.09472656 C9.07037109 114.95582031 8.17833984 115.81691406 7.25927734 116.70410156 C6.55287109 117.44144531 5.84646484 118.17878906 5.11865234 118.93847656 C-8.02484243 131.88130729 -26.77925351 137.02626523 -44.74072266 137.20410156 C-64.65940827 137.00688685 -82.95649061 130.68240626 -97.13134766 116.40722656 C-97.99244141 115.51519531 -98.85353516 114.62316406 -99.74072266 113.70410156 C-100.47806641 112.99769531 -101.21541016 112.29128906 -101.97509766 111.56347656 C-108.41805681 105.02062657 -112.16443252 97.05221994 -115.74072266 88.70410156 C-116.19962891 87.63804687 -116.65853516 86.57199219 -117.13134766 85.47363281 C-122.53616906 70.15362847 -122.13396851 49.62771229 -115.74072266 34.70410156 C-115.47759277 34.06859375 -115.21446289 33.43308594 -114.94335938 32.77832031 C-110.53815736 22.34744016 -104.85369323 14.53569743 -96.74072266 6.70410156 C-96.03431641 5.96675781 -95.32791016 5.22941406 -94.60009766 4.46972656 C-70.40433808 -19.35663211 -26.63378874 -19.82779112 0 0 Z " fill="#000000" transform="translate(300.74072265625,194.2958984375)"/>
</svg>
